<?xml version="1.0" encoding="utf-8"?>
<!-- Generator: Adobe Illustrator 22.0.1, SVG Export Plug-In . SVG Version: 6.00 Build 0)  -->
<svg version="1.1" id="Layer_1" xmlns="http://www.w3.org/2000/svg" xmlns:xlink="http://www.w3.org/1999/xlink" x="0px" y="0px"
	 viewBox="0 0 150 150" style="enable-background:new 0 0 150 150;" xml:space="preserve">
<style type="text/css">
	.st0{fill:#203C52;}
	.st1{fill:#EEEEEE;}
	.st2{opacity:0.12;}
	.st3{clip-path:url(#SVGID_2_);}
</style>
<g>
	<path class="st0" d="M134.4,31.6h-9.2v31.7h3.7v14.5h-7v-48c0-9.8-7.9-17.7-17.7-17.7H46.1c-9.8,0-17.7,7.9-17.7,17.7v47.1h-6.1
		V61.4h3.9V29.7H17v31.6h3.9v16.9h7.5v34.6c0,6.7,3.7,12.5,9.2,15.5v6.6c0,1.4,1.1,2.5,2.5,2.5h10.4c1.4,0,2.5-1.1,2.5-2.5v-4.5
		h43.8v4.5c0,1.4,1.1,2.5,2.5,2.5h10.4c1.4,0,2.5-1.1,2.5-2.5v-6.4c5.7-2.9,9.6-8.9,9.6-15.7V79.2h8.5v-16h4L134.4,31.6L134.4,31.6z
		 M54.9,15.7h41.2v9.6H54.9V15.7z M114.5,79c0,0-4.4,14-39.7,14c-35.3,0-39-14-39-14V30.5h78.8V79z"/>
</g>
<g>
	<circle class="st1" cx="40.1" cy="114.4" r="3.6"/>
</g>
<g>
	<circle class="st1" cx="49.5" cy="114.4" r="3.6"/>
</g>
<g>
	<circle class="st1" cx="58.9" cy="114.4" r="3.6"/>
</g>
<g>
	<circle class="st1" cx="92.6" cy="114.4" r="3.6"/>
</g>
<g>
	<circle class="st1" cx="101.9" cy="114.4" r="3.6"/>
</g>
<g>
	<circle class="st1" cx="111.3" cy="114.4" r="3.6"/>
</g>
<g class="st2">
	<defs>
		<rect id="SVGID_1_" x="75.4" y="0.5" class="st2" width="49.9" height="154.9"/>
	</defs>
	<clipPath id="SVGID_2_">
		<use xlink:href="#SVGID_1_"  style="overflow:visible;"/>
	</clipPath>
	<g class="st3">
		<path class="st0" d="M122.1,77.8v-48c0-9.8-7.9-17.7-17.7-17.7H46.3c-9.8,0-17.7,7.9-17.7,17.7v47.1h-6.1V61.4h3.9V29.8h-9.2v31.6
			h3.9v16.9h7.5V113c0,6.7,3.7,12.5,9.2,15.5v6.6c0,1.4,1.1,2.5,2.5,2.5h10.4c1.4,0,2.5-1.1,2.5-2.5v-4.5h43.8v4.5
			c0,1.4,1.1,2.5,2.5,2.5H110c1.4,0,2.5-1.1,2.5-2.5v-6.4c5.7-2.9,9.6-8.9,9.6-15.7V79.3"/>
	</g>
</g>
<g>
	<path class="st1" d="M77.4,101.7c-0.1-1-0.1-2.2-0.1-3.2h0c-0.2,0.9-0.6,1.8-0.9,2.8l-1.3,3.5h-0.7l-1.2-3.5c-0.3-1-0.6-2-0.8-2.8
		h0c0,0.9-0.1,2.1-0.1,3.2L72,105h-0.9l0.5-7.3h1.2l1.2,3.5c0.3,0.9,0.6,1.7,0.7,2.5h0c0.2-0.7,0.4-1.5,0.8-2.5l1.3-3.5h1.2l0.5,7.3
		h-0.9L77.4,101.7z"/>
	<path class="st1" d="M80.6,102.5c0,1.3,0.8,1.8,1.8,1.8c0.7,0,1.1-0.1,1.5-0.3l0.2,0.7c-0.3,0.2-0.9,0.3-1.7,0.3
		c-1.6,0-2.6-1.1-2.6-2.6c0-1.6,0.9-2.8,2.5-2.8c1.7,0,2.2,1.5,2.2,2.5c0,0.2,0,0.3,0,0.4H80.6z M83.4,101.8c0-0.6-0.2-1.5-1.3-1.5
		c-1,0-1.4,0.9-1.5,1.5H83.4z"/>
	<path class="st1" d="M86.6,98.2v1.5H88v0.7h-1.4v2.8c0,0.7,0.2,1,0.7,1c0.2,0,0.4,0,0.6-0.1l0,0.7c-0.2,0.1-0.5,0.1-0.8,0.1
		c-0.4,0-0.8-0.1-1-0.4c-0.3-0.3-0.4-0.7-0.4-1.4v-2.9h-0.8v-0.7h0.8v-1.3L86.6,98.2z"/>
	<path class="st1" d="M89.1,101.3c0-0.6,0-1.1,0-1.6h0.8l0,1h0c0.2-0.7,0.8-1.1,1.5-1.1c0.1,0,0.2,0,0.3,0v0.9c-0.1,0-0.2,0-0.3,0
		c-0.7,0-1.1,0.5-1.3,1.2c0,0.1,0,0.3,0,0.4v2.8h-0.9V101.3z"/>
	<path class="st1" d="M97.2,102.3c0,1.9-1.3,2.8-2.6,2.8c-1.4,0-2.5-1-2.5-2.7c0-1.8,1.1-2.8,2.6-2.8
		C96.2,99.6,97.2,100.7,97.2,102.3z M93.1,102.3c0,1.1,0.7,2,1.6,2c0.9,0,1.6-0.9,1.6-2c0-0.9-0.4-2-1.6-2
		C93.6,100.3,93.1,101.3,93.1,102.3z"/>
</g>
<g>
	<path class="st1" d="M58,103.3l-0.8,1.7h-1.5l3.3-6.7h1.8l0.8,6.7h-1.5l-0.1-1.7H58z M59.9,102.2l-0.1-1.4c0-0.4-0.1-0.9-0.1-1.3h0
		c-0.2,0.4-0.4,0.9-0.5,1.3l-0.7,1.4H59.9z"/>
	<path class="st1" d="M64,99.6h-1.8l0.2-1.3h5l-0.2,1.3h-1.8l-1,5.5H63L64,99.6z"/>
</g>
</svg>
