<?xml version="1.0" encoding="utf-8"?>
<!-- Generator: Adobe Illustrator 22.0.1, SVG Export Plug-In . SVG Version: 6.00 Build 0)  -->
<svg version="1.1" id="Layer_1" xmlns="http://www.w3.org/2000/svg" xmlns:xlink="http://www.w3.org/1999/xlink" x="0px" y="0px"
	 viewBox="0 0 500 500" style="enable-background:new 0 0 500 500;" xml:space="preserve">
<style type="text/css">
	.st0{fill:#203C52;}
	.st1{fill:#EEEEEE;}
	.st2{opacity:0.12;}
	.st3{clip-path:url(#SVGID_2_);}
</style>
<g>
	<path class="st0" d="M472.4,87.1h-34.9V207h13.9v55.1H425V80.2c0-37-30-66.9-66.9-66.9H137.8c-36.9,0-66.9,30-66.9,66.9v178.4h-23
		V200h14.6V80.2H27.6V200h14.6v64.2h28.6v131.1c0,25.3,14.1,47.4,34.9,58.7v25c0,5.3,4.3,9.6,9.6,9.6h39.3c5.3,0,9.6-4.3,9.6-9.6
		v-16.9h165.9V479c0,5.3,4.3,9.6,9.6,9.6h39.3c5.3,0,9.6-4.3,9.6-9.6v-24.4c21.5-11.1,36.2-33.5,36.2-59.4V267.7H457V207h15.3
		L472.4,87.1L472.4,87.1z M171.2,27.2h156.1v36.3H171.2V27.2z M397.1,267c0,0-16.7,53-150.6,53c-133.8,0-147.8-53-147.8-53v-184
		h298.3V267z"/>
</g>
<g>
	<circle class="st1" cx="115.2" cy="401" r="13.7"/>
</g>
<g>
	<circle class="st1" cx="150.7" cy="401" r="13.7"/>
</g>
<g>
	<circle class="st1" cx="186.1" cy="401" r="13.7"/>
</g>
<g>
	<circle class="st1" cx="313.9" cy="401" r="13.7"/>
</g>
<g>
	<circle class="st1" cx="349.3" cy="401" r="13.7"/>
</g>
<g>
	<circle class="st1" cx="384.8" cy="401" r="13.7"/>
</g>
<g class="st2">
	<defs>
		<rect id="SVGID_1_" x="248.7" y="-30.7" class="st2" width="189.1" height="586.6"/>
	</defs>
	<clipPath id="SVGID_2_">
		<use xlink:href="#SVGID_1_"  style="overflow:visible;"/>
	</clipPath>
	<g class="st3">
		<path class="st0" d="M425.8,262.3V80.4c0-37-30-66.9-66.9-66.9H138.6c-36.9,0-66.9,30-66.9,66.9v178.4h-23v-58.6h14.6V80.4H28.5
			v119.9h14.6v64.2h28.6v131.1c0,25.3,14.1,47.4,34.9,58.7v25c0,5.3,4.3,9.6,9.6,9.6h39.3c5.3,0,9.6-4.3,9.6-9.6v-16.9H331v16.9
			c0,5.3,4.3,9.6,9.6,9.6h39.3c5.3,0,9.6-4.3,9.6-9.6v-24.4c21.5-11.1,36.2-33.5,36.2-59.4V267.9"/>
	</g>
</g>
<g>
	<path class="st1" d="M256.6,353c-0.2-3.9-0.5-8.5-0.4-11.9h-0.1c-0.9,3.2-2.1,6.7-3.5,10.5l-4.9,13.4H245l-4.5-13.2
		c-1.3-3.9-2.4-7.5-3.2-10.8h-0.1c-0.1,3.4-0.3,8.1-0.5,12.2l-0.7,11.9h-3.4l1.9-27.7h4.6l4.7,13.4c1.2,3.4,2.1,6.4,2.8,9.3h0.1
		c0.7-2.8,1.7-5.8,2.9-9.3l4.9-13.4h4.6l1.7,27.7h-3.5L256.6,353z"/>
	<path class="st1" d="M268.4,355.9c0.1,4.9,3.2,6.9,6.8,6.9c2.6,0,4.1-0.5,5.5-1l0.6,2.6c-1.3,0.6-3.4,1.2-6.6,1.2
		c-6.1,0-9.8-4-9.8-10c0-6,3.5-10.7,9.3-10.7c6.5,0,8.2,5.7,8.2,9.4c0,0.7-0.1,1.3-0.1,1.7H268.4z M279,353.3c0-2.3-0.9-5.9-5-5.9
		c-3.7,0-5.3,3.4-5.5,5.9H279z"/>
	<path class="st1" d="M291.3,339.6v5.7h5.2v2.8h-5.2v10.7c0,2.5,0.7,3.9,2.7,3.9c0.9,0,1.6-0.1,2.1-0.2l0.2,2.7
		c-0.7,0.3-1.8,0.5-3.2,0.5c-1.7,0-3-0.5-3.9-1.5c-1-1.1-1.4-2.8-1.4-5.2V348h-3.1v-2.8h3.1v-4.8L291.3,339.6z"/>
	<path class="st1" d="M300.6,351.5c0-2.3,0-4.4-0.2-6.2h3.2l0.1,3.9h0.2c0.9-2.7,3.1-4.4,5.5-4.4c0.4,0,0.7,0,1,0.1v3.4
		c-0.4-0.1-0.7-0.1-1.2-0.1c-2.5,0-4.4,1.9-4.8,4.6c-0.1,0.5-0.2,1.1-0.2,1.7v10.6h-3.6V351.5z"/>
	<path class="st1" d="M331.6,355c0,7.3-5.1,10.6-9.9,10.6c-5.4,0-9.5-3.9-9.5-10.2c0-6.7,4.4-10.6,9.9-10.6
		C327.7,344.8,331.6,349,331.6,355z M315.8,355.2c0,4.4,2.5,7.6,6,7.6c3.4,0,6-3.2,6-7.7c0-3.4-1.7-7.6-6-7.6
		C317.6,347.5,315.8,351.5,315.8,355.2z"/>
</g>
<g>
	<path class="st1" d="M183,358.8l-3,6.6h-5.8l12.4-25.5h7l3,25.5h-5.7l-0.5-6.6H183z M190.2,354.7l-0.5-5.5c-0.1-1.4-0.3-3.4-0.4-5
		h-0.1c-0.6,1.6-1.4,3.5-2,5l-2.5,5.5H190.2z"/>
	<path class="st1" d="M205.6,344.7h-6.7l0.9-4.8h19l-0.9,4.8H211l-3.9,20.7h-5.5L205.6,344.7z"/>
</g>
</svg>
