<?xml version="1.0" encoding="utf-8"?>
<!-- Generator: Adobe Illustrator 22.0.1, SVG Export Plug-In . SVG Version: 6.00 Build 0)  -->
<svg version="1.1" id="Layer_1" xmlns="http://www.w3.org/2000/svg" xmlns:xlink="http://www.w3.org/1999/xlink" x="0px" y="0px"
	 viewBox="0 0 50 50" style="enable-background:new 0 0 50 50;" xml:space="preserve">
<style type="text/css">
	.st0{fill:#203C52;}
	.st1{fill:#EEEDEE;}
	.st2{opacity:0.12;}
	.st3{clip-path:url(#SVGID_2_);}
</style>
<g>
	<path class="st0" d="M45.6,10.1h-3.3v11.3h1.3v5.2h-2.5V9.4c0-3.5-2.8-6.3-6.3-6.3H14.1c-3.5,0-6.3,2.8-6.3,6.3v16.8H5.6v-5.5H7
		V9.4H3.8v11.3h1.4v6h2.7v12.3c0,2.4,1.3,4.5,3.3,5.5v2.4c0,0.5,0.4,0.9,0.9,0.9h3.7c0.5,0,0.9-0.4,0.9-0.9v-1.6h15.6v1.6
		c0,0.5,0.4,0.9,0.9,0.9h3.7c0.5,0,0.9-0.4,0.9-0.9v-2.3c2-1,3.4-3.2,3.4-5.6v-12h3v-5.7h1.4L45.6,10.1L45.6,10.1z M17.3,4.4H32v3.4
		H17.3V4.4z M38.5,27c0,0-1.6,5-14.2,5s-13.9-5-13.9-5V9.7h28.1L38.5,27L38.5,27z"/>
</g>
<g>
	<circle class="st1" cx="12" cy="39.6" r="1.3"/>
</g>
<g>
	<circle class="st1" cx="15.3" cy="39.6" r="1.3"/>
</g>
<g>
	<circle class="st1" cx="18.7" cy="39.6" r="1.3"/>
</g>
<g>
	<circle class="st1" cx="30.7" cy="39.6" r="1.3"/>
</g>
<g>
	<circle class="st1" cx="34" cy="39.6" r="1.3"/>
</g>
<g>
	<circle class="st1" cx="37.4" cy="39.6" r="1.3"/>
</g>
<g class="st2">
	<g>
		<defs>
			<rect id="SVGID_1_" x="24.6" y="-1" width="17.8" height="55.3"/>
		</defs>
		<clipPath id="SVGID_2_">
			<use xlink:href="#SVGID_1_"  style="overflow:visible;"/>
		</clipPath>
		<g class="st3">
			<path class="st0" d="M41.2,26.6V9.4c0-3.5-2.8-6.3-6.3-6.3H14.2c-3.5,0-6.3,2.8-6.3,6.3v16.8H5.7v-5.5h1.4V9.4H3.8v11.3h1.4v6
				h2.7v12.4c0,2.4,1.3,4.5,3.3,5.5V47c0,0.5,0.4,0.9,0.9,0.9h3.7c0.5,0,0.9-0.4,0.9-0.9v-1.6h15.6V47c0,0.5,0.4,0.9,0.9,0.9h3.7
				c0.5,0,0.9-0.4,0.9-0.9v-2.3c2-1,3.4-3.2,3.4-5.6v-12"/>
		</g>
	</g>
</g>
<g>
	<path class="st1" d="M25.3,35.1c0-0.4,0-0.8,0-1.1l0,0c-0.1,0.3-0.2,0.6-0.3,1l-0.5,1.2h-0.2L23.8,35c-0.1-0.4-0.2-0.7-0.3-1l0,0
		c0,0.3,0,0.7,0,1.1l-0.1,1.2H23l0.2-2.6h0.4l0.4,1.2c0.1,0.3,0.2,0.6,0.2,0.9l0,0c0.1-0.2,0.1-0.5,0.3-0.9l0.5-1.2h0.4l0.2,2.6
		h-0.3L25.3,35.1z"/>
	<path class="st1" d="M26.4,35.4c0,0.5,0.3,0.6,0.6,0.6c0.2,0,0.4,0,0.5-0.1l0.1,0.2c-0.1,0.1-0.3,0.1-0.6,0.1
		c-0.6,0-0.9-0.4-0.9-0.9c0-0.6,0.3-1,0.9-1c0.6,0,0.8,0.5,0.8,0.9c0,0.1,0,0.1,0,0.1H26.4z M27.4,35.1c0-0.2-0.1-0.5-0.5-0.5
		c-0.4,0-0.5,0.3-0.5,0.5H27.4z"/>
	<path class="st1" d="M28.6,33.8v0.5h0.5v0.2h-0.5v1c0,0.2,0.1,0.4,0.2,0.4c0.1,0,0.1,0,0.2,0v0.2c-0.1,0-0.2,0-0.3,0
		c-0.1,0-0.3,0-0.4-0.1c-0.1-0.1-0.1-0.2-0.1-0.5v-1H28v-0.2h0.3v-0.5L28.6,33.8z"/>
	<path class="st1" d="M29.5,35c0-0.2,0-0.4,0-0.6h0.3v0.4l0,0c0.1-0.2,0.3-0.4,0.5-0.4c0,0,0.1,0,0.1,0v0.3c0,0-0.1,0-0.1,0
		c-0.2,0-0.4,0.2-0.5,0.4c0,0,0,0.1,0,0.1v1h-0.3L29.5,35L29.5,35z"/>
	<path class="st1" d="M32.4,35.3c0,0.7-0.5,1-0.9,1c-0.5,0-0.9-0.4-0.9-1c0-0.6,0.4-1,0.9-1C32,34.3,32.4,34.7,32.4,35.3z
		 M30.9,35.3c0,0.4,0.2,0.7,0.6,0.7c0.3,0,0.6-0.3,0.6-0.7c0-0.3-0.1-0.7-0.6-0.7C31.1,34.6,30.9,35,30.9,35.3z"/>
</g>
<g>
	<path class="st1" d="M18.4,35.7l-0.3,0.6h-0.5l1.2-2.4h0.6l0.3,2.4h-0.5l0-0.6H18.4z M19.1,35.3l0-0.5c0-0.1,0-0.3,0-0.5l0,0
		c-0.1,0.1-0.1,0.3-0.2,0.5l-0.2,0.5H19.1z"/>
	<path class="st1" d="M20.5,34.3h-0.6l0.1-0.5h1.8l-0.1,0.5H21l-0.4,2h-0.5L20.5,34.3z"/>
</g>
</svg>
