<?xml version="1.0" encoding="utf-8"?>
<!-- Generator: Adobe Illustrator 22.0.1, SVG Export Plug-In . SVG Version: 6.00 Build 0)  -->
<svg version="1.1" id="Layer_1" xmlns="http://www.w3.org/2000/svg" xmlns:xlink="http://www.w3.org/1999/xlink" x="0px" y="0px"
	 viewBox="0 0 10 10" style="enable-background:new 0 0 10 10;" xml:space="preserve">
<style type="text/css">
	.st0{fill:#203C52;}
	.st1{fill:#EEEDEE;}
	.st2{opacity:0.12;}
	.st3{clip-path:url(#SVGID_2_);}
</style>
<g>
	<path class="st0" d="M9,2.1H8.4v2.2h0.3v1H8.1V2c0-0.7-0.5-1.2-1.2-1.2H3C2.3,0.8,1.8,1.3,1.8,2v3.2H1.4V4.1h0.3V2H1v2.2h0.3v1.2
		h0.5v2.4c0,0.5,0.3,0.9,0.6,1.1v0.4c0,0.1,0.1,0.2,0.2,0.2h0.7c0.1,0,0.2-0.1,0.2-0.2V8.8h3v0.3c0,0.1,0.1,0.2,0.2,0.2h0.7
		c0.1,0,0.2-0.1,0.2-0.2V8.7c0.4-0.2,0.7-0.6,0.7-1.1V5.4h0.6V4.3H9L9,2.1L9,2.1z M3.6,1h2.8v0.7H3.6V1z M7.6,5.3c0,0-0.3,1-2.7,1
		s-2.7-1-2.7-1V2h5.4L7.6,5.3L7.6,5.3z"/>
</g>
<g>
	<circle class="st1" cx="2.6" cy="7.8" r="0.2"/>
</g>
<g>
	<circle class="st1" cx="3.2" cy="7.8" r="0.2"/>
</g>
<g>
	<circle class="st1" cx="3.8" cy="7.8" r="0.2"/>
</g>
<g>
	<circle class="st1" cx="6.1" cy="7.8" r="0.2"/>
</g>
<g>
	<circle class="st1" cx="6.8" cy="7.8" r="0.2"/>
</g>
<g>
	<circle class="st1" cx="7.4" cy="7.8" r="0.2"/>
</g>
<g class="st2">
	<g>
		<defs>
			<rect id="SVGID_1_" x="5" width="3.4" height="10.5"/>
		</defs>
		<clipPath id="SVGID_2_">
			<use xlink:href="#SVGID_1_"  style="overflow:visible;"/>
		</clipPath>
		<g class="st3">
			<path class="st0" d="M8.1,5.3V2c0-0.7-0.5-1.2-1.2-1.2H3C2.3,0.8,1.8,1.3,1.8,2v3.2H1.4V4.1h0.3V2H1v2.2h0.3v1.2h0.5v2.4
				c0,0.5,0.3,0.9,0.6,1.1v0.4c0,0.1,0.1,0.2,0.2,0.2h0.7c0.1,0,0.2-0.1,0.2-0.2V8.9h3v0.3c0,0.1,0.1,0.2,0.2,0.2h0.7
				c0.1,0,0.2-0.1,0.2-0.2V8.7c0.4-0.2,0.7-0.6,0.7-1.1V5.4"/>
		</g>
	</g>
</g>
<g>
	<path class="st1" d="M5.1,6.9c0-0.1,0-0.1,0-0.2l0,0C5.1,6.7,5.1,6.8,5.1,6.9L4.9,7.1h0L4.8,6.9c0-0.1,0-0.1-0.1-0.2l0,0
		c0,0.1,0,0.1,0,0.2l0,0.2H4.7l0-0.5h0.1l0.1,0.2c0,0.1,0,0.1,0,0.2l0,0c0,0,0-0.1,0.1-0.2l0.1-0.2h0.1l0,0.5H5.1L5.1,6.9z"/>
	<path class="st1" d="M5.3,6.9c0,0.1,0.1,0.1,0.1,0.1c0,0,0.1,0,0.1,0l0,0c0,0-0.1,0-0.1,0C5.3,7.1,5.3,7,5.3,6.9
		c-0.1-0.1,0-0.2,0.1-0.2c0.1,0,0.1,0.1,0.1,0.2c0,0,0,0,0,0H5.3z M5.5,6.9c0,0,0-0.1-0.1-0.1c-0.1,0-0.1,0.1-0.1,0.1H5.5z"/>
	<path class="st1" d="M5.7,6.6v0.1h0.1v0H5.7V7c0,0,0,0.1,0,0.1c0,0,0,0,0,0v0c0,0,0,0-0.1,0c0,0-0.1,0-0.1,0c0,0,0,0,0-0.1V6.8H5.6
		v0L5.7,6.6L5.7,6.6L5.7,6.6z"/>
	<path class="st1" d="M5.9,6.9c0,0,0-0.1,0-0.1H6L5.9,6.9L5.9,6.9C6,6.8,6,6.7,6.1,6.7c0,0,0,0,0,0v0.1c0,0,0,0,0,0
		C6,6.8,6,6.8,5.9,6.9C6,6.9,6,6.9,5.9,6.9L6,7.1H5.9L5.9,6.9L5.9,6.9z"/>
	<path class="st1" d="M6.4,6.9c0,0.1-0.1,0.2-0.2,0.2C6.2,7.1,6.1,7,6.1,6.9c0-0.1,0.1-0.2,0.2-0.2C6.4,6.7,6.4,6.8,6.4,6.9z
		 M6.2,6.9c0,0.1,0,0.1,0.1,0.1S6.4,7,6.4,6.9c0-0.1,0-0.1-0.1-0.1C6.2,6.8,6.2,6.9,6.2,6.9z"/>
</g>
<g>
	<path class="st1" d="M3.8,7L3.7,7.1H3.6l0.2-0.5H4L4,7.1H3.9l0-0.1H3.8z M3.9,6.9L3.9,6.9c0-0.1,0-0.2,0-0.2l0,0
		C3.9,6.8,3.9,6.8,3.9,6.9L3.9,6.9L3.9,6.9z"/>
	<path class="st1" d="M4.2,6.7H4.1l0-0.1h0.3l0,0.1H4.2l0,0.4H4.1L4.2,6.7z"/>
</g>
</svg>
